<svg version="1.0" xmlns="http://www.w3.org/2000/svg"
 width="32.000000" height="32.000000" viewBox="0 0 32.000000 32.000000"
 preserveAspectRatio="xMidYMid meet">

<g transform="translate(0.000000,32.000000) scale(0.100000,-0.100000)"
fill="#fff" stroke="none">
<path d="M105 275 c-26 -25 -32 -63 -15 -95 7 -13 5 -21 -7 -31 -21 -18 -43
-71 -43 -104 l0 -25 120 0 120 0 0 25 c0 33 -22 86 -43 104 -12 10 -14 18 -7
31 28 53 -11 120 -70 120 -19 0 -40 -9 -55 -25z m95 -15 c25 -25 25 -55 0 -80
-11 -11 -29 -20 -40 -20 -26 0 -60 34 -60 60 0 26 34 60 60 60 11 0 29 -9 40
-20z m21 -119 c10 -1 39 -66 39 -85 0 -14 -15 -16 -100 -16 -107 0 -110 2 -91
53 16 42 34 52 92 50 30 0 57 -2 60 -2z"/>
</g>
</svg>
